<svg xmlns="http://www.w3.org/2000/svg" viewBox="34 14 208 108" fill="none" stroke-linecap="round" stroke-linejoin="round"><g transform="scale(1.32)"><path d="M33.09 41.16A18 18 0 1 1 68 35C68 45 50 47 50 55V56" stroke="#ffffff" stroke-width="6"/><path d="M42.5 64.5H57.5M45.5 71H54.5" stroke="#ffffff" stroke-width="5"/><circle cx="50" cy="83" r="6" fill="#ff1fbb"/></g><g transform="translate(108 92.4) scale(0.064)" fill="#ffffff"><path d="M151 -665H347L409 -740Q409 -740 427.5 -726Q446 -712 472 -692Q498 -672 520 -652Q517 -637 493 -637H127ZM35 -414H376L435 -495Q435 -495 445.5 -486Q456 -477 473 -463Q490 -449 508.5 -432.5Q527 -416 541 -402Q537 -386 514 -386H43ZM222 -665H336V-480Q336 -427 330.5 -367.5Q325 -308 309 -245.5Q293 -183 260.5 -123Q228 -63 173.5 -8Q119 47 38 91L28 81Q92 17 130.5 -53Q169 -123 189 -196Q209 -269 215.5 -341Q222 -413 222 -480ZM140 -847 298 -806Q295 -796 285.5 -790Q276 -784 259 -784Q221 -679 166 -599.5Q111 -520 41 -466L29 -475Q54 -521 76 -581.5Q98 -642 115 -710Q132 -778 140 -847ZM297 -289Q373 -263 418.5 -230Q464 -197 483.5 -162.5Q503 -128 503.5 -99.5Q504 -71 489 -52.5Q474 -34 450.5 -32.5Q427 -31 400 -51Q393 -91 374.5 -132Q356 -173 332.5 -212Q309 -251 287 -283ZM608 -79H865V-50H608ZM810 -714H800L856 -777L968 -688Q963 -681 952.5 -675.5Q942 -670 927 -666V4Q927 8 911 16.5Q895 25 872 32Q849 39 828 39H810ZM542 -714V-765L661 -714H857V-686H657V13Q657 19 644 29.5Q631 40 609 47.5Q587 55 561 55H542Z"/><path transform="translate(100 0)" d="M1047 -773H1762L1830 -855Q1830 -855 1842 -846.5Q1854 -838 1873.5 -823.5Q1893 -809 1914.5 -792.5Q1936 -776 1953 -761Q1951 -753 1943.5 -749Q1936 -745 1925 -745H1055ZM1435 -621 1478 -677 1586 -638Q1583 -631 1575.5 -626Q1568 -621 1555 -619V-357Q1555 -353 1540.5 -344.5Q1526 -336 1504 -329Q1482 -322 1457 -322H1435ZM1189 -289V-338L1313 -289H1765V-261H1305V51Q1305 56 1290.5 65Q1276 74 1253 81Q1230 88 1206 88H1189ZM1693 -289H1681L1737 -352L1856 -261Q1851 -254 1839.5 -247.5Q1828 -241 1811 -238V55Q1811 58 1794 64.5Q1777 71 1754 76.5Q1731 82 1712 82H1693ZM1242 -27H1763V1H1242ZM1606 -610Q1706 -597 1784 -569Q1862 -541 1908 -494Q1930 -471 1936.5 -447.5Q1943 -424 1937 -404.5Q1931 -385 1915.5 -375Q1900 -365 1879 -368.5Q1858 -372 1835 -396Q1816 -428 1780.5 -466Q1745 -504 1699.5 -539.5Q1654 -575 1602 -598ZM1465 -764H1634Q1572 -669 1476.5 -587Q1381 -505 1265 -441Q1149 -377 1027 -335L1020 -346Q1091 -384 1159 -433.5Q1227 -483 1286.5 -538Q1346 -593 1392 -650.5Q1438 -708 1465 -764Z"/></g></svg>
